<mxfile host="app.diagrams.net" modified="2021-03-18T08:33:55.777Z" agent="5.0 (Macintosh; Intel Mac OS X 11_2_3) AppleWebKit/537.36 (KHTML, like Gecko) Chrome/89.0.4389.90 Safari/537.36" etag="qOkG9uG8JtJonJbl_tAs" version="14.4.8" type="github">
  <diagram id="hrvEUlPZ7Sl5a-fx2PgV" name="第 1 页">
    <mxGraphModel dx="927" dy="-492" grid="0" gridSize="10" guides="1" tooltips="1" connect="1" arrows="1" fold="1" page="1" pageScale="1" pageWidth="1169" pageHeight="827" background="#FFFDF0" math="0" shadow="0">
      <root>
        <mxCell id="0" />
        <mxCell id="1" parent="0" />
        <mxCell id="ESg7y5GwWMkOcSWc0D8r-2" style="edgeStyle=orthogonalEdgeStyle;rounded=0;orthogonalLoop=1;jettySize=auto;html=1;exitX=0.5;exitY=1;exitDx=0;exitDy=0;exitPerimeter=0;" edge="1" parent="1">
          <mxGeometry relative="1" as="geometry">
            <mxPoint x="265" y="1409.74" as="sourcePoint" />
            <mxPoint x="265" y="1409.74" as="targetPoint" />
          </mxGeometry>
        </mxCell>
        <mxCell id="ESg7y5GwWMkOcSWc0D8r-3" value="" style="curved=1;endArrow=classic;html=1;shadow=1;strokeWidth=2;dashed=1;" edge="1" parent="1">
          <mxGeometry width="50" height="50" relative="1" as="geometry">
            <mxPoint x="308.5" y="1245" as="sourcePoint" />
            <mxPoint x="438.5" y="1329.24" as="targetPoint" />
            <Array as="points">
              <mxPoint x="397.5" y="1262.24" />
              <mxPoint x="357.5" y="1316.49" />
            </Array>
          </mxGeometry>
        </mxCell>
        <mxCell id="ESg7y5GwWMkOcSWc0D8r-4" value="" style="curved=1;endArrow=classic;html=1;shadow=1;strokeWidth=2;dashed=1;" edge="1" parent="1">
          <mxGeometry width="50" height="50" relative="1" as="geometry">
            <mxPoint x="310" y="1389.7399999999998" as="sourcePoint" />
            <mxPoint x="435" y="1344.7399999999998" as="targetPoint" />
            <Array as="points">
              <mxPoint x="385" y="1378.74" />
            </Array>
          </mxGeometry>
        </mxCell>
        <mxCell id="ESg7y5GwWMkOcSWc0D8r-5" value="&lt;div style=&quot;font-family: &amp;#34;helvetica&amp;#34; ; font-size: 12px&quot;&gt;&lt;br&gt;&lt;/div&gt;" style="text;html=1;strokeColor=none;fillColor=none;align=center;verticalAlign=middle;whiteSpace=wrap;rounded=0;shadow=1;glass=1;sketch=1;fontFamily=Tahoma;fontSize=14;" vertex="1" parent="1">
          <mxGeometry x="174.5" y="1430.24" width="181" height="20" as="geometry" />
        </mxCell>
        <mxCell id="ESg7y5GwWMkOcSWc0D8r-6" value="&lt;b&gt;&lt;font style=&quot;font-size: 22px&quot;&gt;DR&lt;/font&gt;&lt;/b&gt;" style="ellipse;whiteSpace=wrap;html=1;shadow=1;glass=1;sketch=1;strokeWidth=2;fontFamily=Tahoma;fontSize=14;fillStyle=solid;fillColor=#f0c9cf;" vertex="1" parent="1">
          <mxGeometry x="508.5" y="1280.24" width="157" height="108" as="geometry" />
        </mxCell>
        <mxCell id="ESg7y5GwWMkOcSWc0D8r-7" value="VIP" style="rounded=0;whiteSpace=wrap;html=1;shadow=1;glass=1;sketch=1;strokeColor=#000000;strokeWidth=2;fontFamily=Tahoma;fontSize=14;fillStyle=solid;fillColor=#A9C4EB;" vertex="1" parent="1">
          <mxGeometry x="445.5" y="1320" width="85" height="32.75" as="geometry" />
        </mxCell>
        <mxCell id="ESg7y5GwWMkOcSWc0D8r-9" style="edgeStyle=orthogonalEdgeStyle;curved=1;sketch=0;orthogonalLoop=1;jettySize=auto;html=1;exitX=1;exitY=0.5;exitDx=0;exitDy=0;entryX=-0.003;entryY=0.627;entryDx=0;entryDy=0;entryPerimeter=0;shadow=1;strokeWidth=2;" edge="1" parent="1" source="ESg7y5GwWMkOcSWc0D8r-11" target="ESg7y5GwWMkOcSWc0D8r-15">
          <mxGeometry relative="1" as="geometry" />
        </mxCell>
        <mxCell id="ESg7y5GwWMkOcSWc0D8r-10" style="edgeStyle=orthogonalEdgeStyle;curved=1;sketch=0;orthogonalLoop=1;jettySize=auto;html=1;exitX=1;exitY=0.5;exitDx=0;exitDy=0;entryX=0;entryY=0.5;entryDx=0;entryDy=0;entryPerimeter=0;shadow=1;strokeWidth=2;" edge="1" parent="1" source="ESg7y5GwWMkOcSWc0D8r-11" target="ESg7y5GwWMkOcSWc0D8r-14">
          <mxGeometry relative="1" as="geometry" />
        </mxCell>
        <mxCell id="ESg7y5GwWMkOcSWc0D8r-43" style="edgeStyle=orthogonalEdgeStyle;curved=1;sketch=0;orthogonalLoop=1;jettySize=auto;html=1;exitX=1;exitY=0.5;exitDx=0;exitDy=0;entryX=0;entryY=0.5;entryDx=0;entryDy=0;entryPerimeter=0;shadow=1;strokeColor=#FF0000;strokeWidth=2;fontColor=#E6E6E6;" edge="1" parent="1" source="ESg7y5GwWMkOcSWc0D8r-11" target="ESg7y5GwWMkOcSWc0D8r-13">
          <mxGeometry relative="1" as="geometry" />
        </mxCell>
        <mxCell id="ESg7y5GwWMkOcSWc0D8r-11" value="DIP" style="rounded=0;whiteSpace=wrap;html=1;shadow=1;glass=1;sketch=1;strokeColor=#000000;strokeWidth=2;fontFamily=Tahoma;fontSize=14;fillStyle=solid;fillColor=#A9C4EB;" vertex="1" parent="1">
          <mxGeometry x="643.5" y="1320" width="85" height="32.75" as="geometry" />
        </mxCell>
        <mxCell id="ESg7y5GwWMkOcSWc0D8r-12" value="&lt;div style=&quot;font-family: &amp;#34;helvetica&amp;#34; ; font-size: 12px&quot;&gt;&lt;br&gt;&lt;/div&gt;" style="text;html=1;strokeColor=none;fillColor=none;align=center;verticalAlign=middle;whiteSpace=wrap;rounded=0;shadow=1;glass=1;sketch=1;fontFamily=Tahoma;fontSize=14;" vertex="1" parent="1">
          <mxGeometry x="187.5" y="1303.24" width="181" height="20" as="geometry" />
        </mxCell>
        <mxCell id="ESg7y5GwWMkOcSWc0D8r-14" value="" style="shape=mxgraph.signs.tech.computer;html=1;pointerEvents=1;verticalLabelPosition=bottom;verticalAlign=top;align=center;labelBackgroundColor=none;fontColor=#ffffff;fillColor=#4D4D4D;strokeColor=#4D4D4D;" vertex="1" parent="1">
          <mxGeometry x="939" y="1310.38" width="62" height="52" as="geometry" />
        </mxCell>
        <mxCell id="ESg7y5GwWMkOcSWc0D8r-15" value="" style="shape=mxgraph.signs.tech.computer;html=1;pointerEvents=1;verticalLabelPosition=bottom;verticalAlign=top;align=center;labelBackgroundColor=none;fontColor=#ffffff;fillColor=#4D4D4D;strokeColor=#4D4D4D;" vertex="1" parent="1">
          <mxGeometry x="845" y="1425" width="62" height="52" as="geometry" />
        </mxCell>
        <mxCell id="ESg7y5GwWMkOcSWc0D8r-17" value="&lt;span style=&quot;color: rgb(0, 0, 0); font-family: helvetica; font-size: 12px; font-style: normal; font-weight: 400; letter-spacing: normal; text-align: center; text-indent: 0px; text-transform: none; word-spacing: 0px; display: inline; float: none;&quot;&gt;RIP-2&lt;/span&gt;" style="text;html=1;strokeColor=none;fillColor=none;align=center;verticalAlign=middle;whiteSpace=wrap;rounded=0;labelBackgroundColor=none;" vertex="1" parent="1">
          <mxGeometry x="950" y="1319.38" width="40" height="20" as="geometry" />
        </mxCell>
        <mxCell id="ESg7y5GwWMkOcSWc0D8r-18" value="&lt;span style=&quot;color: rgb(0, 0, 0); font-family: helvetica; font-size: 12px; font-style: normal; font-weight: 400; letter-spacing: normal; text-align: center; text-indent: 0px; text-transform: none; word-spacing: 0px; display: inline; float: none;&quot;&gt;RIP-3&lt;/span&gt;" style="text;html=1;strokeColor=none;fillColor=none;align=center;verticalAlign=middle;whiteSpace=wrap;rounded=0;labelBackgroundColor=none;" vertex="1" parent="1">
          <mxGeometry x="856" y="1435" width="40" height="20" as="geometry" />
        </mxCell>
        <mxCell id="ESg7y5GwWMkOcSWc0D8r-19" value="源：&lt;span style=&quot;font-family: &amp;#34;helvetica&amp;#34;&quot;&gt;11.1.1.10:8888&lt;/span&gt;&lt;span style=&quot;font-family: &amp;#34;helvetica&amp;#34;&quot;&gt;:mac@1&lt;/span&gt;&lt;br&gt;目标：VIP:PORT:mac@R&lt;span style=&quot;font-family: &amp;#34;helvetica&amp;#34;&quot;&gt;IP&lt;/span&gt;" style="rounded=1;whiteSpace=wrap;html=1;fillColor=#EA6B66;strokeColor=#EA6B66;" vertex="1" parent="1">
          <mxGeometry x="604" y="1269.38" width="179" height="41" as="geometry" />
        </mxCell>
        <mxCell id="ESg7y5GwWMkOcSWc0D8r-21" value="" style="shape=mxgraph.signs.tech.computer;html=1;pointerEvents=1;verticalLabelPosition=bottom;verticalAlign=top;align=center;labelBackgroundColor=none;fontColor=#ffffff;strokeColor=#4D4D4D;fillColor=#004C99;" vertex="1" parent="1">
          <mxGeometry x="226.5" y="1219" width="62" height="52" as="geometry" />
        </mxCell>
        <mxCell id="ESg7y5GwWMkOcSWc0D8r-22" value="" style="shape=mxgraph.signs.tech.computer;html=1;pointerEvents=1;verticalLabelPosition=bottom;verticalAlign=top;align=center;labelBackgroundColor=none;fontColor=#ffffff;strokeColor=#4D4D4D;fillColor=#4C0099;" vertex="1" parent="1">
          <mxGeometry x="226.5" y="1362.38" width="62" height="52" as="geometry" />
        </mxCell>
        <mxCell id="ESg7y5GwWMkOcSWc0D8r-23" value="&lt;div style=&quot;font-family: &amp;#34;helvetica&amp;#34;&quot;&gt;源：11.1.1.10:8888:mac@1&lt;/div&gt;&lt;div style=&quot;font-family: &amp;#34;helvetica&amp;#34;&quot;&gt;目标：VIP:PORT:mac@VIP&lt;/div&gt;" style="rounded=1;whiteSpace=wrap;html=1;fillColor=#EA6B66;strokeColor=#EA6B66;" vertex="1" parent="1">
          <mxGeometry x="168" y="1289" width="179" height="41" as="geometry" />
        </mxCell>
        <mxCell id="ESg7y5GwWMkOcSWc0D8r-24" value="&lt;div style=&quot;font-family: &amp;#34;helvetica&amp;#34;&quot;&gt;&lt;div&gt;源：22.1.1.20:6666:mac@2&lt;/div&gt;目标：VIP:PORT:mac@VIP&lt;/div&gt;" style="rounded=1;whiteSpace=wrap;html=1;fillColor=#EA6B66;strokeColor=#EA6B66;" vertex="1" parent="1">
          <mxGeometry x="168" y="1436" width="179" height="41" as="geometry" />
        </mxCell>
        <mxCell id="ESg7y5GwWMkOcSWc0D8r-28" value="源：VIP:PORT:mac@VIP&lt;br&gt;目标：&lt;span style=&quot;font-family: &amp;#34;helvetica&amp;#34;&quot;&gt;11.1.1.10:8888:mac@1&lt;/span&gt;" style="rounded=1;whiteSpace=wrap;html=1;strokeColor=#82b366;fillColor=#82B366;" vertex="1" parent="1">
          <mxGeometry x="598" y="1121" width="185" height="43" as="geometry" />
        </mxCell>
        <mxCell id="ESg7y5GwWMkOcSWc0D8r-29" value="TCP 连接&lt;br&gt;VIP - CIP" style="rounded=1;whiteSpace=wrap;html=1;strokeWidth=2;glass=0;shadow=1;sketch=1;fillStyle=solid;strokeColor=#36393d;fillColor=#A680B8;" vertex="1" parent="1">
          <mxGeometry x="1007" y="1191" width="120" height="43" as="geometry" />
        </mxCell>
        <mxCell id="ESg7y5GwWMkOcSWc0D8r-42" value="" style="group" vertex="1" connectable="0" parent="1">
          <mxGeometry x="875" y="1183" width="110" height="91" as="geometry" />
        </mxCell>
        <mxCell id="ESg7y5GwWMkOcSWc0D8r-16" value="&lt;meta charset=&quot;utf-8&quot;&gt;&lt;span style=&quot;color: rgb(0, 0, 0); font-family: helvetica; font-size: 12px; font-style: normal; font-weight: 400; letter-spacing: normal; text-align: center; text-indent: 0px; text-transform: none; word-spacing: 0px; display: inline; float: none;&quot;&gt;RIP-1&lt;/span&gt;" style="text;html=1;strokeColor=none;fillColor=none;align=center;verticalAlign=middle;whiteSpace=wrap;rounded=0;labelBackgroundColor=none;" vertex="1" parent="ESg7y5GwWMkOcSWc0D8r-42">
          <mxGeometry x="35" y="10" width="40" height="20" as="geometry" />
        </mxCell>
        <mxCell id="ESg7y5GwWMkOcSWc0D8r-31" value="&amp;nbsp; lo" style="rounded=1;whiteSpace=wrap;html=1;shadow=0;glass=0;sketch=0;strokeWidth=1;fontFamily=Tahoma;fontSize=14;fillStyle=solid;align=left;fillColor=#FF9933;strokeColor=#FF9933;" vertex="1" parent="ESg7y5GwWMkOcSWc0D8r-42">
          <mxGeometry x="23" y="30" width="64" height="28" as="geometry" />
        </mxCell>
        <mxCell id="ESg7y5GwWMkOcSWc0D8r-39" value="&lt;font style=&quot;font-size: 10px&quot;&gt;VIP&lt;/font&gt;" style="rounded=1;whiteSpace=wrap;html=1;shadow=0;glass=0;sketch=0;strokeWidth=1;fontFamily=Tahoma;fontSize=14;fillStyle=solid;fillColor=#A9C4EB;dashed=1;" vertex="1" parent="ESg7y5GwWMkOcSWc0D8r-42">
          <mxGeometry x="51.63157894736844" y="35.5" width="23.57894736842105" height="17" as="geometry" />
        </mxCell>
        <mxCell id="ESg7y5GwWMkOcSWc0D8r-13" value="" style="shape=mxgraph.signs.tech.computer;html=1;pointerEvents=1;verticalLabelPosition=bottom;verticalAlign=top;align=center;labelBackgroundColor=none;fontColor=#ffffff;fillColor=#4D4D4D;strokeColor=#4D4D4D;" vertex="1" parent="ESg7y5GwWMkOcSWc0D8r-42">
          <mxGeometry width="110" height="91" as="geometry" />
        </mxCell>
        <mxCell id="ESg7y5GwWMkOcSWc0D8r-48" style="edgeStyle=orthogonalEdgeStyle;curved=1;sketch=0;orthogonalLoop=1;jettySize=auto;html=1;exitX=0;exitY=0.5;exitDx=0;exitDy=0;exitPerimeter=0;entryX=1.008;entryY=0.301;entryDx=0;entryDy=0;entryPerimeter=0;shadow=1;strokeWidth=2;fontColor=#E6E6E6;strokeColor=#66CC00;" edge="1" parent="1" source="ESg7y5GwWMkOcSWc0D8r-13" target="ESg7y5GwWMkOcSWc0D8r-21">
          <mxGeometry relative="1" as="geometry">
            <Array as="points">
              <mxPoint x="875" y="1181" />
              <mxPoint x="532" y="1181" />
              <mxPoint x="532" y="1235" />
            </Array>
          </mxGeometry>
        </mxCell>
      </root>
    </mxGraphModel>
  </diagram>
</mxfile>
